<svg xmlns="http://www.w3.org/2000/svg" width="2.625" height="15.75" viewBox="0 0 2.625 15.75">
  <path id="Trazado_875" data-name="Trazado 875" d="M2.625-2.625A1.312,1.312,0,0,0,1.313-1.312,1.312,1.312,0,0,0,2.625,0,1.312,1.312,0,0,0,3.938-1.312,1.312,1.312,0,0,0,2.625-2.625Zm0-6.562A1.313,1.313,0,0,0,1.313-7.875,1.312,1.312,0,0,0,2.625-6.562,1.312,1.312,0,0,0,3.938-7.875,1.313,1.313,0,0,0,2.625-9.187Zm1.313-5.25A1.313,1.313,0,0,0,2.625-15.75a1.313,1.313,0,0,0-1.312,1.313,1.313,1.313,0,0,0,1.313,1.313A1.313,1.313,0,0,0,3.938-14.437Z" transform="translate(-1.313 15.75)" fill="#4d4d4d"/>
</svg>
