<svg xmlns="http://www.w3.org/2000/svg" width="21.067" height="21.067" viewBox="0 0 21.067 21.067">
  <path id="Trazado_873" data-name="Trazado 873" d="M15-9.375a6.875,6.875,0,0,0-3.437-5.954,6.875,6.875,0,0,0-6.875,0A6.875,6.875,0,0,0,1.25-9.375,6.875,6.875,0,0,0,4.688-3.421a6.875,6.875,0,0,0,6.875,0A6.875,6.875,0,0,0,15-9.375ZM13.41-3.2A8.08,8.08,0,0,1,8.125-1.25,8.124,8.124,0,0,1,0-9.375,8.124,8.124,0,0,1,8.125-17.5,8.124,8.124,0,0,1,16.25-9.375,8.08,8.08,0,0,1,14.3-4.09l5.52,5.523a.624.624,0,1,1-.883.883Z" transform="translate(0.5 18)" fill="#4d4d4d" stroke="rgba(0,0,0,0)" stroke-width="1"/>
</svg>
