<svg xmlns="http://www.w3.org/2000/svg" width="34.025" height="29.772" viewBox="0 0 34.025 29.772">
  <path id="Trazado_867" data-name="Trazado 867" d="M-20.247-38.749a3.191,3.191,0,0,0-3.19,3.19v17.325l5.941-5.941a2.13,2.13,0,0,1,3.01,0L-9.614-19.3l9.131-9.131a2.13,2.13,0,0,1,3.01,0l5.934,5.941V-35.559a3.191,3.191,0,0,0-3.19-3.19H-20.247Zm-3.19,22.017v2.439a3.191,3.191,0,0,0,3.19,3.19h2.439l7.443-7.443-4.878-4.878a1.067,1.067,0,0,0-1.5,0l-6.692,6.692ZM1.77-27.678a1.067,1.067,0,0,0-1.5,0L-16.306-11.1H5.272a3.191,3.191,0,0,0,3.19-3.19v-6.692ZM-24.5-35.559a4.257,4.257,0,0,1,4.253-4.253H5.272a4.257,4.257,0,0,1,4.253,4.253v21.266A4.257,4.257,0,0,1,5.272-10.04H-20.247A4.257,4.257,0,0,1-24.5-14.294Zm11.165,4.253a2.658,2.658,0,0,0-1.329-2.3,2.658,2.658,0,0,0-2.658,0,2.658,2.658,0,0,0-1.329,2.3A2.658,2.658,0,0,0-17.323-29a2.658,2.658,0,0,0,2.658,0A2.658,2.658,0,0,0-13.335-31.306Zm-6.38,0a3.722,3.722,0,0,1,1.861-3.223,3.722,3.722,0,0,1,3.722,0,3.722,3.722,0,0,1,1.861,3.223,3.722,3.722,0,0,1-1.861,3.223,3.722,3.722,0,0,1-3.722,0A3.722,3.722,0,0,1-19.715-31.306Z" transform="translate(24.5 39.813)" fill="#7a7a7a"/>
</svg>
