<svg xmlns="http://www.w3.org/2000/svg" width="20" height="20" viewBox="0 0 20 20">
  <path id="Trazado_872" data-name="Trazado 872" d="M10-16.25a8.75,8.75,0,0,1,7.578,4.375,8.75,8.75,0,0,1,0,8.75A8.75,8.75,0,0,1,10,1.25,8.75,8.75,0,0,1,2.422-3.125a8.75,8.75,0,0,1,0-8.75A8.75,8.75,0,0,1,10-16.25ZM10,2.5a10,10,0,0,0,8.66-5,10,10,0,0,0,0-10,10,10,0,0,0-8.66-5,10,10,0,0,0-8.66,5,10,10,0,0,0,0,10A10,10,0,0,0,10,2.5ZM9.375-3.75A.627.627,0,0,0,10-3.125a.627.627,0,0,0,.625-.625V-6.875H13.75a.627.627,0,0,0,.625-.625.627.627,0,0,0-.625-.625H10.625V-11.25A.627.627,0,0,0,10-11.875a.627.627,0,0,0-.625.625v3.125H6.25a.627.627,0,0,0-.625.625.627.627,0,0,0,.625.625H9.375Z" transform="translate(0 17.5)" fill="#fff"/>
</svg>
