<svg xmlns="http://www.w3.org/2000/svg" width="14.997" height="14" viewBox="0 0 14.997 14">
  <path id="Trazado_876" data-name="Trazado 876" d="M6.353.853a.5.5,0,0,1-.706,0l-3-3a.5.5,0,0,1,0-.706.5.5,0,0,1,.706,0L5.5-.706V-12.5A.5.5,0,0,1,6-13a.5.5,0,0,1,.5.5V-.706L8.647-2.853a.5.5,0,0,1,.706,0,.5.5,0,0,1,0,.706l-3,3Zm11-10.706a.5.5,0,0,1,0,.706.5.5,0,0,1-.706,0L14.5-11.294V.5a.5.5,0,0,1-1,0V-11.294L11.353-9.147a.5.5,0,0,1-.706,0,.5.5,0,0,1,0-.706l3-3a.5.5,0,0,1,.706,0Z" transform="translate(-2.502 13)" fill="#7a7a7a"/>
</svg>
