<svg xmlns="http://www.w3.org/2000/svg" width="18.375" height="21" viewBox="0 0 18.375 21">
  <path id="Trazado_878" data-name="Trazado 878" d="M4.547,1.245l-.628,1H10.08l-.628-1A.655.655,0,0,0,8.895.938H5.1a.66.66,0,0,0-.558.308ZM10.568.552l1.062,1.7h3.9a.656.656,0,0,1,0,1.313h-.656V17.344a3.28,3.28,0,0,1-3.281,3.281H2.406A3.28,3.28,0,0,1-.875,17.344V3.563h-.656a.658.658,0,0,1-.656-.656.658.658,0,0,1,.656-.656h3.9L3.432.552A1.968,1.968,0,0,1,5.1-.375H8.895a1.963,1.963,0,0,1,1.669.927ZM.438,3.563V17.344a1.969,1.969,0,0,0,1.969,1.969h9.187a1.969,1.969,0,0,0,1.969-1.969V3.563ZM3.719,6.844v9.188a.656.656,0,0,1-1.312,0V6.844a.656.656,0,0,1,1.313,0Zm3.938,0v9.188a.656.656,0,0,1-1.312,0V6.844a.656.656,0,0,1,1.313,0Zm3.937,0v9.188a.656.656,0,0,1-1.312,0V6.844a.656.656,0,0,1,1.313,0Z" transform="translate(2.188 0.375)" fill="#4d71ff"/>
</svg>
